<?xml version="1.0" encoding="UTF-8" standalone="no"?>
<!DOCTYPE svg PUBLIC "-//W3C//DTD SVG 1.1//EN"
 "http://www.w3.org/Graphics/SVG/1.1/DTD/svg11.dtd">
<!-- Generated by graphviz version 2.36.0 (20140111.2315)
 -->
<!-- Title: Database Structure Pages: 1 -->
<svg width="908pt" height="661pt"
 viewBox="0.00 0.00 908.00 661.00" xmlns="http://www.w3.org/2000/svg" xmlns:xlink="http://www.w3.org/1999/xlink">
<g id="graph0" class="graph" transform="scale(1 1) rotate(0) translate(4 657)">
<title>Database Structure</title>
<polygon fill="white" stroke="none" points="-4,4 -4,-657 904,-657 904,4 -4,4"/>
<text text-anchor="middle" x="450" y="-637.8" font-family="Helvetica,sans-Serif" font-size="14.00">ER Diagram: tempdb</text>
<!-- dice -->
<g id="node1" class="node"><title>dice</title>
<polygon fill="#dddddd" stroke="none" points="510,-87.8033 510,-109.803 606,-109.803 606,-87.8033 510,-87.8033"/>
<polygon fill="none" stroke="black" points="510,-87.8033 510,-109.803 606,-109.803 606,-87.8033 510,-87.8033"/>
<text text-anchor="start" x="546" y="-95.1033" font-family="Times,serif" font-size="14.00">dice</text>
<polygon fill="none" stroke="black" points="510,-66.8033 510,-87.8033 606,-87.8033 606,-66.8033 510,-66.8033"/>
<text text-anchor="start" x="542" y="-74.6033" font-family="Times,serif" font-size="14.00">id:</text>
<text text-anchor="start" x="557" y="-74.6033" font-family="Helvetica,sans-Serif" font-style="oblique" font-size="10.00">INT</text>
<polygon fill="none" stroke="black" points="510,-45.8033 510,-66.8033 606,-66.8033 606,-45.8033 510,-45.8033"/>
<text text-anchor="start" x="513.5" y="-53.6033" font-family="Times,serif" font-size="14.00">dice_type:</text>
<text text-anchor="start" x="572.5" y="-53.6033" font-family="Helvetica,sans-Serif" font-style="oblique" font-size="10.00">ENUM</text>
<polygon fill="none" stroke="black" points="510,-24.8033 510,-45.8033 606,-45.8033 606,-24.8033 510,-24.8033"/>
<text text-anchor="start" x="514" y="-32.6033" font-family="Times,serif" font-size="14.00">dice_face:</text>
<text text-anchor="start" x="572" y="-32.6033" font-family="Helvetica,sans-Serif" font-style="oblique" font-size="10.00">ENUM</text>
</g>
<!-- dice_throw -->
<g id="node2" class="node"><title>dice_throw</title>
<polygon fill="#dddddd" stroke="none" points="500,-437.803 500,-459.803 616,-459.803 616,-437.803 500,-437.803"/>
<polygon fill="none" stroke="black" points="500,-437.803 500,-459.803 616,-459.803 616,-437.803 500,-437.803"/>
<text text-anchor="start" x="526.5" y="-445.103" font-family="Times,serif" font-size="14.00">dice_throw</text>
<polygon fill="none" stroke="black" points="500,-416.803 500,-437.803 616,-437.803 616,-416.803 500,-416.803"/>
<text text-anchor="start" x="542" y="-424.603" font-family="Times,serif" font-size="14.00">id:</text>
<text text-anchor="start" x="557" y="-424.603" font-family="Helvetica,sans-Serif" font-style="oblique" font-size="10.00">INT</text>
<polygon fill="none" stroke="black" points="500,-395.803 500,-416.803 616,-416.803 616,-395.803 500,-395.803"/>
<text text-anchor="start" x="523" y="-403.603" font-family="Times,serif" font-size="14.00">game_id:</text>
<text text-anchor="start" x="576" y="-403.603" font-family="Helvetica,sans-Serif" font-style="oblique" font-size="10.00">INT</text>
<polygon fill="none" stroke="black" points="500,-374.803 500,-395.803 616,-395.803 616,-374.803 500,-374.803"/>
<text text-anchor="start" x="521" y="-382.603" font-family="Times,serif" font-size="14.00">player_id:</text>
<text text-anchor="start" x="578" y="-382.603" font-family="Helvetica,sans-Serif" font-style="oblique" font-size="10.00">INT</text>
<polygon fill="none" stroke="black" points="500,-353.803 500,-374.803 616,-374.803 616,-353.803 500,-353.803"/>
<text text-anchor="start" x="509" y="-361.603" font-family="Times,serif" font-size="14.00">throw_type:</text>
<text text-anchor="start" x="577" y="-361.603" font-family="Helvetica,sans-Serif" font-style="oblique" font-size="10.00">ENUM</text>
<polygon fill="none" stroke="black" points="500,-332.803 500,-353.803 616,-353.803 616,-332.803 500,-332.803"/>
<text text-anchor="start" x="503.5" y="-340.603" font-family="Times,serif" font-size="14.00">attack_set_num:</text>
<text text-anchor="start" x="595.5" y="-340.603" font-family="Helvetica,sans-Serif" font-style="oblique" font-size="10.00">INT</text>
</g>
<!-- game -->
<g id="node5" class="node"><title>game</title>
<polygon fill="#dddddd" stroke="none" points="723,-482.803 723,-504.803 892,-504.803 892,-482.803 723,-482.803"/>
<polygon fill="none" stroke="black" points="723,-482.803 723,-504.803 892,-504.803 892,-482.803 723,-482.803"/>
<text text-anchor="start" x="792" y="-490.103" font-family="Times,serif" font-size="14.00">game</text>
<polygon fill="none" stroke="black" points="723,-461.803 723,-482.803 892,-482.803 892,-461.803 723,-461.803"/>
<text text-anchor="start" x="791.5" y="-469.603" font-family="Times,serif" font-size="14.00">id:</text>
<text text-anchor="start" x="806.5" y="-469.603" font-family="Helvetica,sans-Serif" font-style="oblique" font-size="10.00">INT</text>
<polygon fill="none" stroke="black" points="723,-440.803 723,-461.803 892,-461.803 892,-440.803 723,-440.803"/>
<text text-anchor="start" x="726.5" y="-448.603" font-family="Times,serif" font-size="14.00">game_played_time:</text>
<text text-anchor="start" x="837.5" y="-448.603" font-family="Helvetica,sans-Serif" font-style="oblique" font-size="10.00">DATETIME</text>
<polygon fill="none" stroke="black" points="723,-419.803 723,-440.803 892,-440.803 892,-419.803 723,-419.803"/>
<text text-anchor="start" x="747" y="-427.603" font-family="Times,serif" font-size="14.00">game_name:</text>
<text text-anchor="start" x="819" y="-427.603" font-family="Helvetica,sans-Serif" font-style="oblique" font-size="10.00">VARCHAR</text>
</g>
<!-- dice_throw&#45;&gt;game -->
<g id="edge1" class="edge"><title>dice_throw:game_id&#45;&gt;game:id</title>
<path fill="none" stroke="#444444" stroke-dasharray="5,2" d="M617,-406.803C668.46,-406.803 667.31,-464.329 711.782,-471.969"/>
<polygon fill="#444444" stroke="#444444" points="721.715,-476.292 712.033,-471.989 722.285,-469.315 721.715,-476.292"/>
</g>
<!-- player -->
<g id="node8" class="node"><title>player</title>
<polygon fill="#dddddd" stroke="none" points="762,-323.803 762,-345.803 853,-345.803 853,-323.803 762,-323.803"/>
<polygon fill="none" stroke="black" points="762,-323.803 762,-345.803 853,-345.803 853,-323.803 762,-323.803"/>
<text text-anchor="start" x="790" y="-331.103" font-family="Times,serif" font-size="14.00">player</text>
<polygon fill="none" stroke="black" points="762,-302.803 762,-323.803 853,-323.803 853,-302.803 762,-302.803"/>
<text text-anchor="start" x="791.5" y="-310.603" font-family="Times,serif" font-size="14.00">id:</text>
<text text-anchor="start" x="806.5" y="-310.603" font-family="Helvetica,sans-Serif" font-style="oblique" font-size="10.00">INT</text>
<polygon fill="none" stroke="black" points="762,-281.803 762,-302.803 853,-302.803 853,-281.803 762,-281.803"/>
<text text-anchor="start" x="765.5" y="-289.603" font-family="Times,serif" font-size="14.00">name:</text>
<text text-anchor="start" x="800.5" y="-289.603" font-family="Helvetica,sans-Serif" font-style="oblique" font-size="10.00">VARCHAR</text>
</g>
<!-- dice_throw&#45;&gt;player -->
<g id="edge2" class="edge"><title>dice_throw:player_id&#45;&gt;player:id</title>
<path fill="none" stroke="#444444" stroke-dasharray="5,2" d="M617,-384.803C685.06,-384.803 689.19,-319.663 751.007,-313.301"/>
<polygon fill="#444444" stroke="#444444" points="761.174,-316.299 751.012,-313.301 760.826,-309.308 761.174,-316.299"/>
</g>
<!-- dice_throw_adjustment -->
<g id="node3" class="node"><title>dice_throw_adjustment</title>
<polygon fill="#dddddd" stroke="none" points="9,-141.803 9,-163.803 148,-163.803 148,-141.803 9,-141.803"/>
<polygon fill="none" stroke="black" points="9,-141.803 9,-163.803 148,-163.803 148,-141.803 9,-141.803"/>
<text text-anchor="start" x="12.5" y="-149.103" font-family="Times,serif" font-size="14.00">dice_throw_adjustment</text>
<polygon fill="none" stroke="black" points="9,-120.803 9,-141.803 148,-141.803 148,-120.803 9,-120.803"/>
<text text-anchor="start" x="62.5" y="-128.603" font-family="Times,serif" font-size="14.00">id:</text>
<text text-anchor="start" x="77.5" y="-128.603" font-family="Helvetica,sans-Serif" font-style="oblique" font-size="10.00">INT</text>
<polygon fill="none" stroke="black" points="9,-99.8033 9,-120.803 148,-120.803 148,-99.8033 9,-99.8033"/>
<text text-anchor="start" x="27.5" y="-107.603" font-family="Times,serif" font-size="14.00">base_result_id:</text>
<text text-anchor="start" x="112.5" y="-107.603" font-family="Helvetica,sans-Serif" font-style="oblique" font-size="10.00">INT</text>
<polygon fill="none" stroke="black" points="9,-78.8033 9,-99.8033 148,-99.8033 148,-78.8033 9,-78.8033"/>
<text text-anchor="start" x="30" y="-86.6033" font-family="Times,serif" font-size="14.00">from_dice_id:</text>
<text text-anchor="start" x="110" y="-86.6033" font-family="Helvetica,sans-Serif" font-style="oblique" font-size="10.00">INT</text>
<polygon fill="none" stroke="black" points="9,-57.8033 9,-78.8033 148,-78.8033 148,-57.8033 9,-57.8033"/>
<text text-anchor="start" x="38.5" y="-65.6033" font-family="Times,serif" font-size="14.00">to_dice_id:</text>
<text text-anchor="start" x="101.5" y="-65.6033" font-family="Helvetica,sans-Serif" font-style="oblique" font-size="10.00">INT</text>
<polygon fill="none" stroke="black" points="9,-36.8033 9,-57.8033 148,-57.8033 148,-36.8033 9,-36.8033"/>
<text text-anchor="start" x="15" y="-44.6033" font-family="Times,serif" font-size="14.00">adjustment_type:</text>
<text text-anchor="start" x="112" y="-44.6033" font-family="Helvetica,sans-Serif" font-style="oblique" font-size="10.00">ENUM</text>
</g>
<!-- dice_throw_adjustment&#45;&gt;dice -->
<g id="edge4" class="edge"><title>dice_throw_adjustment:from_dice_id&#45;&gt;dice:id</title>
<path fill="none" stroke="#444444" stroke-dasharray="5,2" d="M149,-88.8033C305.636,-88.8033 347.158,-78.2709 498.847,-77.8183"/>
<polygon fill="#444444" stroke="#444444" points="509.005,-81.3033 499,-77.8182 508.995,-74.3033 509.005,-81.3033"/>
</g>
<!-- dice_throw_adjustment&#45;&gt;dice -->
<g id="edge5" class="edge"><title>dice_throw_adjustment:to_dice_id&#45;&gt;dice:id</title>
<path fill="none" stroke="#444444" stroke-dasharray="5,2" d="M149,-67.8033C305.623,-67.8033 347.169,-77.3782 498.848,-77.7896"/>
<polygon fill="#444444" stroke="#444444" points="508.995,-81.3033 499,-77.7897 509.005,-74.3033 508.995,-81.3033"/>
</g>
<!-- dice_throw_result -->
<g id="node4" class="node"><title>dice_throw_result</title>
<polygon fill="#dddddd" stroke="none" points="254,-264.803 254,-286.803 394,-286.803 394,-264.803 254,-264.803"/>
<polygon fill="none" stroke="black" points="254,-264.803 254,-286.803 394,-286.803 394,-264.803 254,-264.803"/>
<text text-anchor="start" x="273" y="-272.103" font-family="Times,serif" font-size="14.00">dice_throw_result</text>
<polygon fill="none" stroke="black" points="254,-243.803 254,-264.803 394,-264.803 394,-243.803 254,-243.803"/>
<text text-anchor="start" x="308" y="-251.603" font-family="Times,serif" font-size="14.00">id:</text>
<text text-anchor="start" x="323" y="-251.603" font-family="Helvetica,sans-Serif" font-style="oblique" font-size="10.00">INT</text>
<polygon fill="none" stroke="black" points="254,-222.803 254,-243.803 394,-243.803 394,-222.803 254,-222.803"/>
<text text-anchor="start" x="273" y="-230.603" font-family="Times,serif" font-size="14.00">dice_throw_id:</text>
<text text-anchor="start" x="358" y="-230.603" font-family="Helvetica,sans-Serif" font-style="oblique" font-size="10.00">INT</text>
<polygon fill="none" stroke="black" points="254,-201.803 254,-222.803 394,-222.803 394,-201.803 254,-201.803"/>
<text text-anchor="start" x="285.5" y="-209.603" font-family="Times,serif" font-size="14.00">dice_num:</text>
<text text-anchor="start" x="345.5" y="-209.603" font-family="Helvetica,sans-Serif" font-style="oblique" font-size="10.00">INT</text>
<polygon fill="none" stroke="black" points="254,-180.803 254,-201.803 394,-201.803 394,-180.803 254,-180.803"/>
<text text-anchor="start" x="273.5" y="-188.603" font-family="Times,serif" font-size="14.00">dice_result_id:</text>
<text text-anchor="start" x="357.5" y="-188.603" font-family="Helvetica,sans-Serif" font-style="oblique" font-size="10.00">INT</text>
<polygon fill="none" stroke="black" points="254,-159.803 254,-180.803 394,-180.803 394,-159.803 254,-159.803"/>
<text text-anchor="start" x="257.5" y="-167.603" font-family="Times,serif" font-size="14.00">final_dice_result_id:</text>
<text text-anchor="start" x="373.5" y="-167.603" font-family="Helvetica,sans-Serif" font-style="oblique" font-size="10.00">INT</text>
</g>
<!-- dice_throw_adjustment&#45;&gt;dice_throw_result -->
<g id="edge3" class="edge"><title>dice_throw_adjustment:base_result_id&#45;&gt;dice_throw_result:id</title>
<path fill="none" stroke="#444444" stroke-dasharray="5,2" d="M149,-110.803C224.246,-110.803 178.814,-241.62 242.746,-253.884"/>
<polygon fill="#444444" stroke="#444444" points="252.687,-258.289 243.04,-253.91 253.313,-251.317 252.687,-258.289"/>
</g>
<!-- dice_throw_result&#45;&gt;dice -->
<g id="edge7" class="edge"><title>dice_throw_result:dice_result_id&#45;&gt;dice:id</title>
<path fill="none" stroke="#444444" stroke-dasharray="5,2" d="M395,-190.803C462.717,-190.803 440.315,-88.9884 498.879,-78.6479"/>
<polygon fill="#444444" stroke="#444444" points="509.291,-81.2912 499.035,-78.635 508.709,-74.3154 509.291,-81.2912"/>
</g>
<!-- dice_throw_result&#45;&gt;dice -->
<g id="edge8" class="edge"><title>dice_throw_result:final_dice_result_id&#45;&gt;dice:id</title>
<path fill="none" stroke="#444444" stroke-dasharray="5,2" d="M395,-169.803C456.547,-169.803 445.423,-87.5906 499.021,-78.5986"/>
<polygon fill="#444444" stroke="#444444" points="509.278,-81.2922 499.032,-78.5979 508.722,-74.3143 509.278,-81.2922"/>
</g>
<!-- dice_throw_result&#45;&gt;dice_throw -->
<g id="edge6" class="edge"><title>dice_throw_result:dice_throw_id&#45;&gt;dice_throw:id</title>
<path fill="none" stroke="#444444" stroke-dasharray="5,2" d="M395,-233.803C489.2,-233.803 407.712,-413.672 488.872,-427.022"/>
<polygon fill="#444444" stroke="#444444" points="498.731,-431.293 489.03,-427.034 499.269,-424.314 498.731,-431.293"/>
</g>
<!-- game_players -->
<g id="node6" class="node"><title>game_players</title>
<polygon fill="#dddddd" stroke="none" points="516,-226.803 516,-248.803 601,-248.803 601,-226.803 516,-226.803"/>
<polygon fill="none" stroke="black" points="516,-226.803 516,-248.803 601,-248.803 601,-226.803 516,-226.803"/>
<text text-anchor="start" x="519.5" y="-234.103" font-family="Times,serif" font-size="14.00">game_players</text>
<polygon fill="none" stroke="black" points="516,-205.803 516,-226.803 601,-226.803 601,-205.803 516,-205.803"/>
<text text-anchor="start" x="523.5" y="-213.603" font-family="Times,serif" font-size="14.00">game_id:</text>
<text text-anchor="start" x="576.5" y="-213.603" font-family="Helvetica,sans-Serif" font-style="oblique" font-size="10.00">INT</text>
<polygon fill="none" stroke="black" points="516,-184.803 516,-205.803 601,-205.803 601,-184.803 516,-184.803"/>
<text text-anchor="start" x="521.5" y="-192.603" font-family="Times,serif" font-size="14.00">player_id:</text>
<text text-anchor="start" x="578.5" y="-192.603" font-family="Helvetica,sans-Serif" font-style="oblique" font-size="10.00">INT</text>
</g>
<!-- game_players&#45;&gt;game -->
<g id="edge9" class="edge"><title>game_players:game_id&#45;&gt;game:id</title>
<path fill="none" stroke="#444444" stroke-dasharray="5,2" d="M602,-215.803C724.49,-215.803 603.216,-458.453 711.899,-472.197"/>
<polygon fill="#444444" stroke="#444444" points="721.79,-476.297 712.018,-472.204 722.21,-469.31 721.79,-476.297"/>
</g>
<!-- game_players&#45;&gt;player -->
<g id="edge10" class="edge"><title>game_players:player_id&#45;&gt;player:id</title>
<path fill="none" stroke="#444444" stroke-dasharray="5,2" d="M602,-194.803C686.392,-194.803 674.217,-303.322 750.687,-312.224"/>
<polygon fill="#444444" stroke="#444444" points="760.804,-316.298 751.016,-312.242 761.196,-309.309 760.804,-316.298"/>
</g>
<!-- game_winner -->
<g id="node7" class="node"><title>game_winner</title>
<polygon fill="#dddddd" stroke="none" points="516,-586.803 516,-608.803 600,-608.803 600,-586.803 516,-586.803"/>
<polygon fill="none" stroke="black" points="516,-586.803 516,-608.803 600,-608.803 600,-586.803 516,-586.803"/>
<text text-anchor="start" x="519.5" y="-594.103" font-family="Times,serif" font-size="14.00">game_winner</text>
<polygon fill="none" stroke="black" points="516,-565.803 516,-586.803 600,-586.803 600,-565.803 516,-565.803"/>
<text text-anchor="start" x="523" y="-573.603" font-family="Times,serif" font-size="14.00">game_id:</text>
<text text-anchor="start" x="576" y="-573.603" font-family="Helvetica,sans-Serif" font-style="oblique" font-size="10.00">INT</text>
<polygon fill="none" stroke="black" points="516,-544.803 516,-565.803 600,-565.803 600,-544.803 516,-544.803"/>
<text text-anchor="start" x="521" y="-552.603" font-family="Times,serif" font-size="14.00">player_id:</text>
<text text-anchor="start" x="578" y="-552.603" font-family="Helvetica,sans-Serif" font-style="oblique" font-size="10.00">INT</text>
</g>
<!-- game_winner&#45;&gt;game -->
<g id="edge11" class="edge"><title>game_winner:game_id&#45;&gt;game:id</title>
<path fill="none" stroke="#444444" stroke-dasharray="5,2" d="M601,-575.803C668.037,-575.803 653.199,-482.999 711.92,-473.573"/>
<polygon fill="#444444" stroke="#444444" points="722.267,-476.293 712.029,-473.565 721.733,-469.313 722.267,-476.293"/>
</g>
<!-- game_winner&#45;&gt;player -->
<g id="edge12" class="edge"><title>game_winner:player_id&#45;&gt;player:id</title>
<path fill="none" stroke="#444444" stroke-dasharray="5,2" d="M601,-554.803C726.412,-554.803 637.245,-325.857 750.923,-313.336"/>
<polygon fill="#444444" stroke="#444444" points="761.185,-316.298 751.014,-313.331 760.815,-309.308 761.185,-316.298"/>
</g>
</g>
</svg>
